<?xml version="1.0" encoding="UTF-8"?>
<svg id="Standard_product_icon" xmlns="http://www.w3.org/2000/svg" width="192" height="192" xmlns:xlink="http://www.w3.org/1999/xlink" version="1.1" viewBox="0 0 192 192">
  <!-- Generator: Adobe Illustrator 29.5.1, SVG Export Plug-In . SVG Version: 2.1.0 Build 141)  -->
  <defs>
    <linearGradient id="linear-gradient" x1="63.88" y1="262.92" x2="143.5" y2="330.05" gradientTransform="translate(0 386) scale(1 -1)" gradientUnits="userSpaceOnUse">
      <stop offset="0" stop-color="#346bf1"/>
      <stop offset=".37" stop-color="#3186ff"/>
      <stop offset=".78" stop-color="#4fa0ff"/>
    </linearGradient>
  </defs>
  <rect id="bounding_box" width="192" height="192" fill="none"/>
  <g id="art_layer">
    <path d="M164.93,86.68c-13.56-5.84-25.42-13.84-35.6-24.01-10.17-10.17-18.18-22.04-24.01-35.6-2.24-5.2-4.04-10.54-5.42-16.02-.45-1.79-2.06-3.05-3.9-3.05s-3.45,1.26-3.9,3.05c-1.38,5.48-3.18,10.81-5.42,16.02-5.84,13.56-13.84,25.43-24.01,35.6-10.17,10.17-22.04,18.18-35.6,24.01-5.2,2.24-10.54,4.04-16.02,5.42-1.79.45-3.05,2.06-3.05,3.9s1.26,3.45,3.05,3.9c5.48,1.38,10.81,3.18,16.02,5.42,13.56,5.84,25.42,13.84,35.6,24.01,10.17,10.17,18.18,22.04,24.01,35.6,2.24,5.2,4.04,10.54,5.42,16.02.45,1.79,2.06,3.05,3.9,3.05s3.45-1.26,3.9-3.05c1.38-5.48,3.18-10.81,5.42-16.02,5.84-13.56,13.84-25.42,24.01-35.6,10.17-10.17,22.04-18.18,35.6-24.01,5.2-2.24,10.54-4.04,16.02-5.42,1.79-.45,3.05-2.06,3.05-3.9s-1.26-3.45-3.05-3.9c-5.48-1.38-10.81-3.18-16.02-5.42Z" fill="url(#linear-gradient)"/>
  </g>
</svg>